# xmcd
#
# Track frame offsets:
#	150
#	20047
#	38790
#	61677
#	91042
#
# Disc length: 1400 seconds
#
# Revision: 0
# Processed by: cddbd v1.5PL3 Copyright (c) Steve Scherf et al.
# Submitted via: dBpowerAMP V4.0
#
DISCID=31057605
DTITLE=Reidar Larsen - Limited Edition CDS
DYEAR=1993
DGENRE=Blues
TTITLE0=I`m A Rocker
TTITLE1=Crowdad Hole
TTITLE2=The Big Boat
TTITLE3=I`d Love To Be A Hippie
TTITLE4=Wild Wild Woman
EXTD=
EXTT0=
EXTT1=
EXTT2=
EXTT3=
EXTT4=
PLAYORDER=
